<?xml version="1.0" encoding="UTF-8" standalone="no"?>
<!-- Created with Inkscape (http://www.inkscape.org/) -->

<svg
   version="1.1"
   id="svg2"
   xml:space="preserve"
   width="5333.3335"
   height="5333.3335"
   viewBox="0 0 5333.3335 5333.3335"
   sodipodi:docname="baby-yoda-6042340.ai"
   xmlns:inkscape="http://www.inkscape.org/namespaces/inkscape"
   xmlns:sodipodi="http://sodipodi.sourceforge.net/DTD/sodipodi-0.dtd"
   xmlns="http://www.w3.org/2000/svg"
   xmlns:svg="http://www.w3.org/2000/svg"><defs
     id="defs6"><clipPath
       clipPathUnits="userSpaceOnUse"
       id="clipPath20"><path
         d="M 0,4000 H 4000 V 0 H 0 Z"
         id="path18" /></clipPath><clipPath
       clipPathUnits="userSpaceOnUse"
       id="clipPath100"><path
         d="m 1444.82,3013.93 h 218.4 v -100.79 h -218.4 z"
         id="path98" /></clipPath><clipPath
       clipPathUnits="userSpaceOnUse"
       id="clipPath116"><path
         d="m 2150.52,3022.22 h 218.4 v -100.8 h -218.4 z"
         id="path114" /></clipPath><clipPath
       clipPathUnits="userSpaceOnUse"
       id="clipPath136"><path
         d="M 0,4000 H 4000 V 0 H 0 Z"
         id="path134" /></clipPath></defs><sodipodi:namedview
     id="namedview4"
     pagecolor="#ffffff"
     bordercolor="#666666"
     borderopacity="1.0"
     inkscape:pageshadow="2"
     inkscape:pageopacity="0.0"
     inkscape:pagecheckerboard="0" /><g
     id="g8"
     inkscape:groupmode="layer"
     inkscape:label="baby-yoda-6042340"
     transform="matrix(1.3333333,0,0,-1.3333333,0,5333.3333)"><g
       id="g10"
       transform="translate(1418.8848,2853.7637)"><path
         d="m 0,0 127.971,-84.811 219.118,-68.815 197.515,-5.945 128.334,24.925 -118.753,-89.423 -154.244,5.288 -244.333,14.806 -117.388,75.562 z"
         style="fill:#6f825a;fill-opacity:1;fill-rule:nonzero;stroke:none"
         id="path12" /></g><g
       id="g14"><g
         id="g16"
         clip-path="url(#clipPath20)"><g
           id="g22"
           transform="translate(2516.334,3173.4155)"><path
             d="m 0,0 c 0,-266.524 -280.812,-482.585 -627.211,-482.585 -346.399,0 -627.211,216.061 -627.211,482.585 0,266.524 280.812,482.584 627.211,482.584 C -280.812,482.584 0,266.524 0,0"
             style="fill:#a0c975;fill-opacity:1;fill-rule:nonzero;stroke:none"
             id="path24" /></g><g
           id="g26"
           transform="translate(200,3001.1694)"><path
             d="M 0,0 1232.534,501.99 1328.611,14.146 Z"
             style="fill:#a0c975;fill-opacity:1;fill-rule:nonzero;stroke:none"
             id="path28" /></g><g
           id="g30"
           transform="translate(3607,3149.3896)"><path
             d="m 0,0 c -4.642,-0.526 -61.446,-6.963 -122.891,-13.946 -384.896,-43.739 -769.75,-88.032 -1154.559,-132.88 11.777,160.825 23.555,321.649 35.334,482.473 z"
             style="fill:#a0c975;fill-opacity:1;fill-rule:nonzero;stroke:none"
             id="path32" /></g><g
           id="g34"
           transform="translate(1784.7012,3094.02)"><path
             d="M 0,0 C 44.617,82.161 -8.324,199.456 -81.899,248.542 -215.844,337.904 -449.37,222.013 -458.635,114.605 -465.947,29.847 -335.134,-67.322 -212.202,-78.902 -196.577,-80.374 -51.089,-94.079 0,0"
             style="fill:#8db55e;fill-opacity:1;fill-rule:nonzero;stroke:none"
             id="path36" /></g><g
           id="g38"
           transform="translate(1790.1611,3105.0664)"><path
             d="M 0,0 C 24.697,71.167 -73.553,195.06 -189.051,205.737 -287.633,214.851 -399.365,141.538 -398.576,67.659 -397.764,-8.379 -277.987,-63.716 -189.051,-70.42 -126.061,-75.168 -20.778,-59.874 0,0"
             style="fill:#603813;fill-opacity:1;fill-rule:nonzero;stroke:none"
             id="path40" /></g><g
           id="g42"
           transform="translate(2457.6396,3193.437)"><path
             d="M 0,0 C 1.821,93.637 -130.529,206.412 -256.617,178.121 -375.382,151.473 -456.822,6.798 -416.321,-84.228 c 38.737,-87.064 176.896,-97.779 256.131,-79.571 20.101,4.619 63.745,15.243 102.861,53.336 C -49.588,-102.924 -1.084,-55.687 0,0"
             style="fill:#8db55e;fill-opacity:1;fill-rule:nonzero;stroke:none"
             id="path44" /></g><g
           id="g46"
           transform="translate(2398.9453,3174.106)"><path
             d="M 0,0 C 0.456,77.392 -110.275,156.191 -209.525,138.079 -308.903,119.942 -385.577,6.685 -357.627,-64.897 c 27.039,-69.247 141.662,-73.047 148.102,-73.182 C -116.641,-140.022 -0.466,-78.983 0,0"
             style="fill:#603813;fill-opacity:1;fill-rule:nonzero;stroke:none"
             id="path48" /></g><g
           id="g50"
           transform="translate(1478.9443,3185.1523)"><path
             d="m 0,0 c 0,64.057 51.334,115.986 114.659,115.986 63.324,0 114.659,-51.929 114.659,-115.986 0,-64.058 -51.335,-115.986 -114.659,-115.986 C 51.334,-115.986 0,-64.058 0,0"
             style="fill:#000000;fill-opacity:1;fill-rule:nonzero;stroke:none"
             id="path52" /></g><g
           id="g54"
           transform="translate(2091.8232,3185.1523)"><path
             d="m 0,0 c 0,64.057 51.334,115.986 114.659,115.986 63.324,0 114.658,-51.929 114.658,-115.986 0,-64.058 -51.334,-115.986 -114.658,-115.986 C 51.334,-115.986 0,-64.058 0,0"
             style="fill:#000000;fill-opacity:1;fill-rule:nonzero;stroke:none"
             id="path56" /></g><g
           id="g58"
           transform="translate(1574.4932,3233.4795)"><path
             d="m 0,0 c 0,-26.69 -21.389,-48.327 -47.774,-48.327 -26.386,0 -47.775,21.637 -47.775,48.327 0,26.69 21.389,48.328 47.775,48.328 C -21.389,48.328 0,26.69 0,0"
             style="fill:#ffffff;fill-opacity:1;fill-rule:nonzero;stroke:none"
             id="path60" /></g><g
           id="g62"
           transform="translate(2192.832,3210.6968)"><path
             d="m 0,0 c 0,-27.834 -22.306,-50.399 -49.822,-50.399 -27.516,0 -49.822,22.565 -49.822,50.399 0,27.834 22.306,50.398 49.822,50.398 C -22.306,50.398 0,27.834 0,0"
             style="fill:#ffffff;fill-opacity:1;fill-rule:nonzero;stroke:none"
             id="path64" /></g><g
           id="g66"
           transform="translate(1818.8257,3059.5005)"><path
             d="m 0,0 c 52.942,5.899 108.076,9.343 165.25,9.666 5.911,0.033 11.797,0.033 17.659,0 C 156.063,-5.983 129.219,-21.632 102.374,-37.281 68.25,-24.854 34.125,-12.427 0,0"
             style="fill:#779e49;fill-opacity:1;fill-rule:nonzero;stroke:none"
             id="path68" /></g><g
           id="g70"
           transform="translate(1731.4668,2946.2764)"><path
             d="m 0,0 c 62.789,-24.854 125.579,-49.708 188.368,-74.563 63.244,27.156 126.488,54.312 189.734,81.467 z"
             style="fill:#30332d;fill-opacity:1;fill-rule:nonzero;stroke:none"
             id="path72" /></g><g
           id="g74"
           transform="translate(1693.5264,2953.7896)"><path
             d="M 0,0 C 74.654,-13.988 149.31,-27.976 223.964,-41.964 L 457.613,6.567 C 305.075,4.378 152.538,2.189 0,0"
             style="fill:#a0c975;fill-opacity:1;fill-rule:nonzero;stroke:none"
             id="path76" /></g><g
           id="g78"
           transform="translate(1295.1182,3010.9575)"><path
             d="m 0,0 -65.053,163.775 -159.584,19.571 C -490.699,119.081 -756.76,54.815 -1022.822,-9.45 -681.881,-6.3 -340.94,-3.15 0,0"
             style="fill:#c49dc3;fill-opacity:1;fill-rule:nonzero;stroke:none"
             id="path80" /></g><g
           id="g82"
           transform="translate(2593.6152,3261.0952)"><path
             d="m 0,0 -117.099,-66.792 12.518,-172.084 995.075,113.225 z"
             style="fill:#b98fac;fill-opacity:1;fill-rule:nonzero;stroke:none"
             id="path84" /></g><g
           id="g86"
           transform="translate(1551.4868,3528.4351)"><path
             d="m 0,0 c 48.264,21.363 99.817,35.906 152.493,39.59 41.446,2.898 83.262,-0.616 124.69,-2.279 55.517,-2.229 111.062,-2.887 166.615,-2.023 28.794,0.447 57.541,2.272 86.287,-0.156 45.381,-3.832 90.331,-13.149 134.657,-23.394 7.774,-1.797 15.536,-3.647 23.289,-5.534 5.122,-1.247 7.307,6.74 2.177,7.988 -48.614,11.835 -97.811,22.597 -147.586,28.01 -14.026,1.525 -28.127,2.58 -42.24,2.613 -13.011,0.032 -26.038,-0.647 -39.046,-0.921 -55.45,-1.173 -110.93,-0.942 -166.359,1.026 -24.762,0.879 -49.509,2.108 -74.269,3.046 -18.869,0.716 -37.783,1.315 -56.66,0.547 C 113.916,46.475 64.508,34.812 17.848,16.383 10.458,13.464 3.135,10.371 -4.134,7.154 -8.951,5.021 -4.787,-2.119 0,0"
             style="fill:#8daf61;fill-opacity:1;fill-rule:nonzero;stroke:none"
             id="path88" /></g><g
           id="g90"
           transform="translate(1640.5571,3509.5596)"><path
             d="m 0,0 c 31.961,6.282 64.403,9.916 96.923,11.364 32.944,1.466 66.003,0.704 98.836,-2.412 16.252,-1.542 32.423,-3.725 48.517,-6.473 8.181,-1.397 16.406,-2.771 24.717,-2.98 8.684,-0.22 17.317,0.904 25.915,1.982 34.785,4.361 69.633,8.699 104.7,9.783 32.94,1.018 66.573,-0.5 98.682,-8.518 3.584,-0.895 7.143,-1.886 10.678,-2.965 2.529,-0.772 3.61,3.225 1.089,3.994 -31.072,9.488 -64.136,12.012 -96.45,11.88 C 378.303,15.511 343.154,11.612 308.152,7.278 299.378,6.191 290.608,4.908 281.8,4.125 273.033,3.347 264.358,3.598 255.642,4.821 c -16.003,2.245 -31.858,5.213 -47.928,7.031 -33.021,3.735 -66.317,5.022 -99.527,4.066 C 75.548,14.98 42.933,11.866 10.757,6.205 6.801,5.508 2.853,4.77 -1.089,3.995 -3.673,3.487 -2.579,-0.507 0,0"
             style="fill:#8fba58;fill-opacity:1;fill-rule:nonzero;stroke:none"
             id="path92" /></g><g
           id="g94"><g
             id="g96" /><g
             id="g108"><g
               clip-path="url(#clipPath100)"
               opacity="0.389999"
               id="g106"><g
                 transform="translate(1663.2173,2963.5361)"
                 id="g104"><path
                   d="m 0,0 c 0,-27.834 -48.89,-50.399 -109.199,-50.399 -60.309,0 -109.198,22.565 -109.198,50.399 0,27.834 48.889,50.398 109.198,50.398 C -48.89,50.398 0,27.834 0,0"
                   style="fill:#ce93c3;fill-opacity:1;fill-rule:nonzero;stroke:none"
                   id="path102" /></g></g></g></g><g
           id="g110"><g
             id="g112" /><g
             id="g124"><g
               clip-path="url(#clipPath116)"
               opacity="0.389999"
               id="g122"><g
                 transform="translate(2368.915,2971.8208)"
                 id="g120"><path
                   d="m 0,0 c 0,-27.834 -48.89,-50.399 -109.198,-50.399 -60.31,0 -109.199,22.565 -109.199,50.399 0,27.834 48.889,50.398 109.199,50.398 C -48.89,50.398 0,27.834 0,0"
                   style="fill:#ce93c3;fill-opacity:1;fill-rule:nonzero;stroke:none"
                   id="path118" /></g></g></g></g></g></g><g
       id="g126"
       transform="translate(1198.8843,226.1279)"><path
         d="M 0,0 20.47,-22.092 66.019,-0.616 -15.018,76.523 Z"
         style="fill:#a0c975;fill-opacity:1;fill-rule:nonzero;stroke:none"
         id="path128" /></g><g
       id="g130"><g
         id="g132"
         clip-path="url(#clipPath136)"><g
           id="g138"
           transform="translate(960.2681,409.7383)"><path
             d="m 0,0 -8.451,-107.667 c 0,0 63.021,-28.996 67,0 3.979,28.997 54.483,45.566 54.483,45.566 l -19.828,-75.59 28.018,-45.919 62.79,45.919 32.419,37.426 L 57.013,51.488 Z"
             style="fill:#a0c975;fill-opacity:1;fill-rule:nonzero;stroke:none"
             id="path140" /></g><g
           id="g142"
           transform="translate(1142.4434,2052.0264)"><path
             d="M 0,0 10.369,131.782 C 3.009,88.287 -0.436,44.124 0,0"
             style="fill:#a0c975;fill-opacity:1;fill-rule:nonzero;stroke:none"
             id="path144" /></g><g
           id="g146"
           transform="translate(3318.7031,1423.2695)"><path
             d="m 0,0 -66.884,75.943 -13.783,55.232 -210.28,-148.625 c 23.41,-12.927 65.376,-95.084 65.376,-95.084 l 20.823,-65.587 37.726,21.756 33.457,106.657 50.301,-27.616 50.069,-79.041 c 0.435,0.337 58.549,0 58.549,0 z"
             style="fill:#a0c975;fill-opacity:1;fill-rule:nonzero;stroke:none"
             id="path148" /></g><g
           id="g150"
           transform="translate(2960.8242,1374.3721)"><path
             d="m 0,0 c -3.294,6.93 -6.804,13.761 -10.614,20.401 1.939,-5.162 3.843,-10.337 5.683,-15.532 1.147,-1.854 2.276,-3.72 3.379,-5.598 z"
             style="fill:#a0c975;fill-opacity:1;fill-rule:nonzero;stroke:none"
             id="path152" /></g><g
           id="g154"
           transform="translate(2953.7773,1414.96)"><path
             d="M 0,0 C 7.281,-11.066 13.624,-22.788 19.324,-34.819 L 73.979,-9.141 C 71.508,-7.777 45.152,-4.597 0,0"
             style="fill:#a0c975;fill-opacity:1;fill-rule:nonzero;stroke:none"
             id="path156" /></g><g
           id="g158"
           transform="translate(2887.8848,1345.083)"><path
             d="m 0,0 c -10.406,27.297 -23.329,53.586 -36.498,79.771 -1.653,0.155 -3.314,0.309 -4.986,0.465 3.157,-7.093 6.416,-14.137 9.779,-21.118 C -21.999,38.975 -11.437,19.218 0,0"
             style="fill:#a0c975;fill-opacity:1;fill-rule:nonzero;stroke:none"
             id="path160" /></g><g
           id="g162"
           transform="translate(2877.7402,1335.3359)"><path
             d="m 0,0 c -12.487,20.769 -23.924,42.193 -34.382,64.052 -4.32,9.03 -8.497,18.156 -12.484,27.372 -390.236,36.079 -1262.43,108.095 -1712.699,144.981 15.611,76.285 32.907,159.548 41.19,195.144 4.899,21.049 9.824,42.305 10.058,63.929 0.286,26.491 -6.463,52.459 -11.795,78.396 -9.651,46.953 -14.711,94.862 -15.185,142.816 l -37.702,-479.184 c -163.144,13.36 -267.496,21.832 -267.496,21.832 l -3.021,-121.167 67.088,-76.473 46.409,63.517 44.887,-86.989 30.188,-27.617 40.949,124.271 0.243,-96.654 22.962,44.184 c 0,0 3.567,17.776 9.167,45.49 l -78.836,-1002.009 z"
             style="fill:#a0c975;fill-opacity:1;fill-rule:nonzero;stroke:none"
             id="path164" /></g><g
           id="g166"
           transform="translate(1176.6987,309.4736)"><path
             d="M 0,0 7.168,-6.822 4.752,5.487 Z"
             style="fill:#a0c975;fill-opacity:1;fill-rule:nonzero;stroke:none"
             id="path168" /></g><g
           id="g170"
           transform="translate(973.8145,1547.5049)"><path
             d="m 0,0 89.931,-77.289 0.243,-96.654 22.962,44.184 12.528,110.463 z"
             style="fill:#6f825a;fill-opacity:1;fill-rule:nonzero;stroke:none"
             id="path172" /></g><g
           id="g174"
           transform="translate(1002.7778,448.1289)"><path
             d="m 0,0 33.868,-119.79 36.654,19.299 57.548,-85.187 c 3.565,1.667 8.606,4.491 13.675,9.243 1.267,1.188 2.169,2.154 2.73,2.762 7.162,7.773 24.837,29.254 30.219,35.812 19.455,-32.821 38.91,-65.641 58.365,-98.461 l 29.066,13.705 z"
             style="fill:#6f825a;fill-opacity:1;fill-rule:nonzero;stroke:none"
             id="path176" /></g><g
           id="g178"
           transform="translate(2923.0996,2451.9551)"><path
             d="m 0,0 256.618,-214.022 53.235,-100.797 187.002,-180.883 13.65,-124.271 -147.418,-272.014 c -106.924,-70.881 -213.849,-141.761 -320.773,-212.642 -25.024,30.377 -50.048,60.755 -75.074,91.132 l 212.939,-675.204 -84.63,-244.4 -300.297,-197.452 -389.021,-215.402 -526.885,57.993 -540.534,53.263 -338.517,301.598 -62.789,154.649 45.044,368.67 181.544,349.339 12.284,136.697 -238.872,56.554 -290.742,320.401 -22.334,73.511 194.322,237.165 251.158,247.161 z"
             style="fill:#d1c893;fill-opacity:1;fill-rule:nonzero;stroke:none"
             id="path180" /></g><g
           id="g182"
           transform="translate(1133.6025,2971.1304)"><path
             d="m 0,0 c 58.888,41.108 203.979,-20.149 285.282,-117.367 65.45,-78.261 70.07,-156.518 141.959,-178.121 34.251,-10.293 46.913,3.35 106.469,4.142 94.146,1.252 157.619,-31.578 188.368,-41.424 56.719,-18.16 112.173,10.127 222.702,73.043 313.829,178.641 391.145,323.134 511.66,294.247 73.243,-17.556 121.926,-89.415 131.039,-103.56 49.201,-76.362 9.735,-113.596 53.235,-194.69 54.756,-102.078 153.43,-110.457 159.703,-196.072 0,0 1.958,-26.714 -10.92,-59.373 -48.007,-121.754 -594.719,-593.208 -1274.897,-444.614 -324.054,70.795 -663.736,279.124 -655.193,455.66 3.769,77.898 73.529,112.152 103.739,280.299 C -12.576,-92.694 -42.311,-29.537 0,0"
             style="fill:#f4efb0;fill-opacity:1;fill-rule:nonzero;stroke:none"
             id="path184" /></g><g
           id="g186"
           transform="translate(1938.9448,876.4785)"><path
             d="m 0,0 c 0.892,12.395 -16.612,408.022 -16.612,408.022 l 108.472,699.703 -254.787,-5.53 c 0,0 -66.391,-511.218 -67.756,-527.172 -1.365,-15.952 -45.045,-597.116 -45.045,-597.116 0,0 25.936,-679.346 30.31,-679.66 l 226.99,-23.728 z"
             style="fill:#f4efb0;fill-opacity:1;fill-rule:nonzero;stroke:none"
             id="path188" /></g><g
           id="g190"
           transform="translate(2830.2813,1557.2061)"><path
             d="M 0,0 60.059,-118.748 135.133,-209.88 455.905,2.762 603.323,274.776 589.674,399.047 461.73,522.802 Z"
             style="fill:#f4efb0;fill-opacity:1;fill-rule:nonzero;stroke:none"
             id="path192" /></g><g
           id="g194"
           transform="translate(524.4126,1962.3496)"><path
             d="m 0,0 313.076,-393.911 261.989,-40.23 45.045,160.172 L 201.509,234.048 46.816,90.558 Z"
             style="fill:#f4efb0;fill-opacity:1;fill-rule:nonzero;stroke:none"
             id="path196" /></g><g
           id="g198"
           transform="translate(1597.6968,2019.4458)"><path
             d="M 0,0 365.792,507.659 221.129,615.537 Z"
             style="fill:#ede6a2;fill-opacity:1;fill-rule:nonzero;stroke:none"
             id="path200" /></g><g
           id="g202"
           transform="translate(1261.9116,217.2559)"><path
             d="M 0,0 V 466.412 L 107.833,802.824 Z"
             style="fill:#b2ae8d;fill-opacity:1;fill-rule:nonzero;stroke:none"
             id="path204" /></g><g
           id="g206"
           transform="translate(923.395,518.8545)"><path
             d="M 0,0 69.456,472.582 0,174.332 Z"
             style="fill:#b2ae8d;fill-opacity:1;fill-rule:nonzero;stroke:none"
             id="path208" /></g><g
           id="g210"
           transform="translate(2329.3311,106)"><path
             d="M 0,0 62.789,571.646 -25.935,996.928 Z"
             style="fill:#b2ae8d;fill-opacity:1;fill-rule:nonzero;stroke:none"
             id="path212" /></g><g
           id="g214"
           transform="translate(3018.6484,518.8545)"><path
             d="M 0,0 -27.882,355.186 -68.438,472.582 Z"
             style="fill:#b2ae8d;fill-opacity:1;fill-rule:nonzero;stroke:none"
             id="path216" /></g><g
           id="g218"
           transform="translate(2830.2813,1557.2061)"><path
             d="M 0,0 -121.484,350.72 Z"
             style="fill:none;stroke:#b2ae8d;stroke-width:4;stroke-linecap:butt;stroke-linejoin:miter;stroke-miterlimit:10;stroke-dasharray:none;stroke-opacity:1"
             id="path220" /></g><g
           id="g222"
           transform="translate(3238.2783,1528.209)"><path
             d="m 0,0 -145.146,-217.474 -51.955,86.815 z"
             style="fill:#6f825a;fill-opacity:1;fill-rule:nonzero;stroke:none"
             id="path224" /></g></g></g></g></svg>
